<svg width="32" height="33" viewBox="0 0 32 33" fill="none" xmlns="http://www.w3.org/2000/svg">
<circle cx="16" cy="16.3282" r="15.5" stroke="#B872FF"/>
<path d="M14.5938 20.922C15 20.5157 15.4688 20.3126 16 20.3126C16.5312 20.3126 17 20.5157 17.4062 20.922C17.8125 21.3282 18.0156 21.797 18.0156 22.3282C18.0156 22.8595 17.8125 23.3282 17.4062 23.7345C17 24.1407 16.5312 24.3439 16 24.3439C15.4688 24.3439 15 24.1407 14.5938 23.7345C14.1875 23.3282 13.9844 22.8595 13.9844 22.3282C13.9844 21.797 14.1875 21.3282 14.5938 20.922ZM14.5938 14.922C15 14.5157 15.4688 14.3126 16 14.3126C16.5312 14.3126 17 14.5157 17.4062 14.922C17.8125 15.3282 18.0156 15.797 18.0156 16.3282C18.0156 16.8595 17.8125 17.3282 17.4062 17.7345C17 18.1407 16.5312 18.3439 16 18.3439C15.4688 18.3439 15 18.1407 14.5938 17.7345C14.1875 17.3282 13.9844 16.8595 13.9844 16.3282C13.9844 15.797 14.1875 15.3282 14.5938 14.922ZM17.4062 11.7345C17 12.1407 16.5312 12.3439 16 12.3439C15.4688 12.3439 15 12.1407 14.5938 11.7345C14.1875 11.3282 13.9844 10.8595 13.9844 10.3282C13.9844 9.797 14.1875 9.32825 14.5938 8.922C15 8.51575 15.4688 8.31262 16 8.31262C16.5312 8.31262 17 8.51575 17.4062 8.922C17.8125 9.32825 18.0156 9.797 18.0156 10.3282C18.0156 10.8595 17.8125 11.3282 17.4062 11.7345Z" fill="#B872FF"/>
</svg>
