<svg width="32" height="32" viewBox="0 0 32 32" fill="none" xmlns="http://www.w3.org/2000/svg">
<circle cx="16" cy="16" r="15.5" stroke="#01080E"/>
<path d="M14.5938 20.5938C15 20.1875 15.4688 19.9844 16 19.9844C16.5312 19.9844 17 20.1875 17.4062 20.5938C17.8125 21 18.0156 21.4688 18.0156 22C18.0156 22.5312 17.8125 23 17.4062 23.4062C17 23.8125 16.5312 24.0156 16 24.0156C15.4688 24.0156 15 23.8125 14.5938 23.4062C14.1875 23 13.9844 22.5312 13.9844 22C13.9844 21.4688 14.1875 21 14.5938 20.5938ZM14.5938 14.5938C15 14.1875 15.4688 13.9844 16 13.9844C16.5312 13.9844 17 14.1875 17.4062 14.5938C17.8125 15 18.0156 15.4688 18.0156 16C18.0156 16.5312 17.8125 17 17.4062 17.4062C17 17.8125 16.5312 18.0156 16 18.0156C15.4688 18.0156 15 17.8125 14.5938 17.4062C14.1875 17 13.9844 16.5312 13.9844 16C13.9844 15.4688 14.1875 15 14.5938 14.5938ZM17.4062 11.4062C17 11.8125 16.5312 12.0156 16 12.0156C15.4688 12.0156 15 11.8125 14.5938 11.4062C14.1875 11 13.9844 10.5312 13.9844 10C13.9844 9.46875 14.1875 9 14.5938 8.59375C15 8.1875 15.4688 7.98438 16 7.98438C16.5312 7.98438 17 8.1875 17.4062 8.59375C17.8125 9 18.0156 9.46875 18.0156 10C18.0156 10.5312 17.8125 11 17.4062 11.4062Z" fill="#01080E"/>
</svg>
