<svg width="24" height="24" viewBox="0 0 24 24" fill="none" xmlns="http://www.w3.org/2000/svg">
<circle cx="12" cy="12" r="12" fill="#F5F5F5"/>
<path d="M13.5117 8.23828V10.6289L12 9.15234V5.25H16.5V8.23828H13.5117ZM6.19922 5.25L18.75 17.8008L17.8008 18.75L13.5117 14.4609V15.7617C13.5117 16.582 13.207 17.2852 12.5977 17.8711C12.0117 18.457 11.3086 18.75 10.4883 18.75C9.66797 18.75 8.96484 18.457 8.37891 17.8711C7.79297 17.2852 7.5 16.582 7.5 15.7617C7.5 14.9414 7.79297 14.2383 8.37891 13.6523C8.96484 13.043 9.66797 12.7383 10.4883 12.7383C10.9805 12.7383 11.4844 12.8789 12 13.1602V12.9492L5.25 6.19922L6.19922 5.25Z" fill="#01080E"/>
</svg>
