<svg width="14" height="14" viewBox="0 0 14 14" fill="none" xmlns="http://www.w3.org/2000/svg">
<path d="M8.51172 3.23828V5.62891L7 4.15234V0.25H11.5V3.23828H8.51172ZM1.19922 0.25L13.75 12.8008L12.8008 13.75L8.51172 9.46094V10.7617C8.51172 11.582 8.20703 12.2852 7.59766 12.8711C7.01172 13.457 6.30859 13.75 5.48828 13.75C4.66797 13.75 3.96484 13.457 3.37891 12.8711C2.79297 12.2852 2.5 11.582 2.5 10.7617C2.5 9.94141 2.79297 9.23828 3.37891 8.65234C3.96484 8.04297 4.66797 7.73828 5.48828 7.73828C5.98047 7.73828 6.48438 7.87891 7 8.16016V7.94922L0.25 1.19922L1.19922 0.25Z" fill="#01080E"/>
</svg>
