<svg width="19" height="18" viewBox="0 0 19 18" fill="none" xmlns="http://www.w3.org/2000/svg">
<path d="M12.5 6V2.01562H2.51562V6H12.5ZM7.39062 15.0938C7.98438 15.6875 8.6875 15.9844 9.5 15.9844C10.3125 15.9844 11.0156 15.6875 11.6094 15.0938C12.2031 14.5 12.5 13.7969 12.5 12.9844C12.5 12.1719 12.2031 11.4688 11.6094 10.875C11.0156 10.2812 10.3125 9.98438 9.5 9.98438C8.6875 9.98438 7.98438 10.2812 7.39062 10.875C6.79688 11.4688 6.5 12.1719 6.5 12.9844C6.5 13.7969 6.79688 14.5 7.39062 15.0938ZM14.5156 0L18.5 3.98438V15.9844C18.5 16.5156 18.2969 16.9844 17.8906 17.3906C17.4844 17.7969 17.0156 18 16.4844 18H2.51562C1.95312 18 1.46875 17.8125 1.0625 17.4375C0.6875 17.0312 0.5 16.5469 0.5 15.9844V2.01562C0.5 1.45312 0.6875 0.984375 1.0625 0.609375C1.46875 0.203125 1.95312 0 2.51562 0H14.5156Z" fill="white"/>
</svg>
