<svg width="12" height="12" viewBox="0 0 12 12" fill="none" xmlns="http://www.w3.org/2000/svg">
<path d="M8 4V1.34375H1.34375V4H8ZM4.59375 10.0625C4.98958 10.4583 5.45833 10.6562 6 10.6562C6.54167 10.6562 7.01042 10.4583 7.40625 10.0625C7.80208 9.66667 8 9.19792 8 8.65625C8 8.11458 7.80208 7.64583 7.40625 7.25C7.01042 6.85417 6.54167 6.65625 6 6.65625C5.45833 6.65625 4.98958 6.85417 4.59375 7.25C4.19792 7.64583 4 8.11458 4 8.65625C4 9.19792 4.19792 9.66667 4.59375 10.0625ZM9.34375 0L12 2.65625V10.6562C12 11.0104 11.8646 11.3229 11.5938 11.5938C11.3229 11.8646 11.0104 12 10.6562 12H1.34375C0.96875 12 0.645833 11.875 0.375 11.625C0.125 11.3542 0 11.0312 0 10.6562V1.34375C0 0.96875 0.125 0.65625 0.375 0.40625C0.645833 0.135417 0.96875 0 1.34375 0H9.34375Z" fill="white"/>
</svg>
